<?xml version="1.0" encoding="UTF-8" standalone="no"?>
<!-- Created with Inkscape (http://www.inkscape.org/) -->

<svg
   xmlns:ns1="http://sozi.baierouge.fr"
   xmlns:dc="http://purl.org/dc/elements/1.1/"
   xmlns:cc="http://creativecommons.org/ns#"
   xmlns:rdf="http://www.w3.org/1999/02/22-rdf-syntax-ns#"
   xmlns:svg="http://www.w3.org/2000/svg"
   xmlns="http://www.w3.org/2000/svg"
   xmlns:sodipodi="http://sodipodi.sourceforge.net/DTD/sodipodi-0.dtd"
   xmlns:inkscape="http://www.inkscape.org/namespaces/inkscape"
   width="210mm"
   height="297mm"
   id="svg2"
   version="1.1"
   inkscape:version="0.48.2 r9819"
   sodipodi:docname="PruebadePresentacion.svg">
  <sodipodi:namedview
     id="base"
     pagecolor="#ffffff"
     bordercolor="#666666"
     borderopacity="1.0"
     inkscape:pageopacity="0.0"
     inkscape:pageshadow="2"
     inkscape:zoom="1.12002"
     inkscape:cx="168.40192"
     inkscape:cy="793.22265"
     inkscape:document-units="px"
     inkscape:current-layer="layer1"
     showgrid="false"
     inkscape:window-width="1920"
     inkscape:window-height="1058"
     inkscape:window-x="1362"
     inkscape:window-y="0"
     inkscape:window-maximized="1" />
  <defs
     id="defs4" />
  <metadata
     id="metadata7">
    <rdf:RDF>
      <cc:Work
         rdf:about="">
        <dc:format>image/svg+xml</dc:format>
        <dc:type
           rdf:resource="http://purl.org/dc/dcmitype/StillImage" />
        <dc:title />
      </cc:Work>
    </rdf:RDF>
  </metadata>
  <g
     inkscape:label="Capa 1"
     inkscape:groupmode="layer"
     id="layer1">
    <text
       xml:space="preserve"
       style="font-size:36.99327469px;font-style:normal;font-variant:normal;font-weight:normal;font-stretch:normal;line-height:125%;letter-spacing:0px;word-spacing:0px;fill:#004e7f;fill-opacity:1;stroke:none;font-family:Ubuntu;-inkscape-font-specification:Ubuntu"
       x="-239.64003"
       y="255.65948"
       id="text2985"
       sodipodi:linespacing="125%"><tspan
         sodipodi:role="line"
         id="tspan2987"
         x="-239.64003"
         y="255.65948">Desarrollo ágil</tspan></text>
    <g
       id="layer1-6"
       transform="translate(-1050.1831,-522.901)">
      <g
         id="g3099">
        <path
           style="fill:#414042"
           id="path4116"
           d="m 625.8144,706.02921 c 2.14663,0 4.00347,0.89173 5.57054,2.67147 1.08575,1.48747 1.63049,2.89907 1.63049,4.23481 l -0.0534,1.68397 v 5.99837 c 0,1.25614 -0.91785,2.5869 -2.75231,3.99477 -1.39917,0.91661 -2.86425,1.37553 -4.39524,1.37553 -2.618,0 -4.78328,-1.16658 -6.49337,-3.49977 -0.33829,-0.57085 -0.50743,-0.97506 -0.50743,-1.21634 v -0.14676 c 0,-0.65045 0.41788,-1.06834 1.25614,-1.25614 h 0.18655 c 0.6318,0 1.12555,0.48131 1.48249,1.4427 1.08576,1.3631 2.44512,2.04464 4.07437,2.04464 1.95013,0 3.41023,-0.87308 4.38157,-2.61799 l 0.0796,-0.53479 v -1.29593 c -1.09571,1.01485 -2.53467,1.52353 -4.31565,1.52353 h -0.39802 c -1.94266,0 -3.74603,-0.90791 -5.41135,-2.72495 -1.02481,-1.4427 -1.53597,-2.9339 -1.53597,-4.47608 0,-2.34314 1.03227,-4.30197 3.09931,-5.87899 1.31708,-0.88054 2.68515,-1.32205 4.10173,-1.32205 z m -4.46241,7.05427 v 0.24004 c 0,1.85312 0.97507,3.23363 2.92643,4.14153 0.50744,0.15173 0.97009,0.22759 1.38922,0.22759 h 0.29351 c 1.8071,0 3.17518,-0.97009 4.10173,-2.91274 0.14179,-0.57957 0.21392,-1.02854 0.21392,-1.34942 v -0.3072 c 0,-1.84316 -0.98501,-3.22492 -2.95255,-4.14152 -0.61439,-0.14179 -1.08699,-0.21392 -1.41658,-0.21392 h -0.18655 c -1.80834,0 -3.17642,0.95889 -4.10173,2.87295 -0.17909,0.52609 -0.2674,1.0074 -0.2674,1.44269 z"
           inkscape:connector-curvature="0" />
        <g
           id="g4810"
           transform="matrix(1.0496968,0,0,1.0496968,524.37728,613.97923)">
          <path
             style="fill:#414042"
             id="path4112"
             d="m 62.295139,82.450479 h 0.240035 c 0.846961,0.179093 1.269819,0.579565 1.269819,1.20266 v 15.979088 h 7.842787 c 0.774827,0 1.233754,0.493753 1.375535,1.482503 -0.25869,0.85566 -0.716372,1.28225 -1.375535,1.28225 h -9.245682 c -0.740004,0 -1.193954,-0.45769 -1.363098,-1.37554 V 83.934216 c 0.106958,-0.988743 0.526086,-1.483737 1.256139,-1.483737 z"
             inkscape:connector-curvature="0" />
          <path
             style="fill:#414042"
             id="path4114"
             d="m 81.220558,87.994905 c 1.860578,0 3.544552,0.70269 5.050674,2.110562 1.432745,1.50488 2.150362,3.202536 2.150362,5.090472 0,2.698837 -1.273551,4.819341 -3.820654,6.359051 -1.114357,0.56091 -2.191403,0.84199 -3.233626,0.84199 h -0.400472 c -1.942662,0 -3.746031,-0.90791 -5.411348,-2.724954 -1.02481,-1.442691 -1.535973,-2.93389 -1.535973,-4.476087 0,-2.341894 1.032274,-4.301965 3.099306,-5.878979 1.317081,-0.880542 2.685153,-1.322055 4.101731,-1.322055 z m -4.408925,7.054279 v 0.240034 c 0,1.665318 0.804675,2.957521 2.417757,3.874132 0.569616,0.293521 1.184005,0.440276 1.843166,0.440276 h 0.293515 c 1.718796,0 3.035877,-0.89547 3.954973,-2.685159 0.203968,-0.552199 0.307194,-1.095703 0.307194,-1.630495 v -0.238788 c 0,-1.38051 -0.638018,-2.547102 -1.910326,-3.499779 -0.740003,-0.50743 -1.589451,-0.761145 -2.552077,-0.761145 -1.880478,0 -3.259745,0.988743 -4.141529,2.966227 -0.143026,0.462661 -0.212673,0.894225 -0.212673,1.294697 z"
             inkscape:connector-curvature="0" />
          <path
             style="fill:#414042"
             id="path4118"
             d="m 107.52486,84.415529 c 0.88178,0.222622 1.32207,0.64175 1.32207,1.256139 v 0.293513 c 0,0.702692 -0.47635,1.12182 -1.42902,1.256141 -0.68653,0 -1.1355,-0.467632 -1.34942,-1.402896 0.1878,-0.935265 0.67285,-1.402897 1.45637,-1.402897 z m 0,3.420181 c 0.88178,0.222623 1.32207,0.641751 1.32207,1.256139 V 101.0886 c 0,0.72135 -0.44525,1.15788 -1.33575,1.30962 h -0.0796 c -0.73006,0 -1.18028,-0.45394 -1.34942,-1.3631 V 89.358002 c 0.10696,-1.014861 0.58826,-1.522292 1.44269,-1.522292 z"
             inkscape:connector-curvature="0" />
          <path
             style="fill:#414042"
             id="path4120"
             d="m 117.99186,87.889189 c 1.87053,0 3.58062,0.712641 5.13028,2.137925 0.15173,0.276102 0.22759,0.53106 0.22759,0.761146 v 0.09328 c -0.16044,0.873079 -0.60941,1.30962 -1.34942,1.30962 h -0.0534 c -0.32958,0 -0.93526,-0.334558 -1.81705,-1.002426 -0.65916,-0.337043 -1.32206,-0.50743 -1.99117,-0.50743 h -0.29351 c -1.77228,0 -3.11797,0.935264 -4.03458,2.805794 -0.21392,0.633043 -0.32087,1.202657 -0.32087,1.710091 0,1.808341 0.94023,3.185117 2.81947,4.127855 0.55221,0.213913 1.14918,0.320869 1.78969,0.320869 1.05093,0 2.11927,-0.457687 3.20627,-1.375539 l 0.54722,-0.120638 h 0.20025 c 0.71263,0 1.14419,0.436541 1.29593,1.309622 v 0.07956 c 0,0.873072 -1.16659,1.754862 -3.49977,2.645352 -0.76614,0.14178 -1.33574,0.21391 -1.7101,0.21391 h -0.40047 c -1.95883,0 -3.77588,-0.91661 -5.45115,-2.752314 -1.03351,-1.451393 -1.54965,-2.952541 -1.54965,-4.502201 0,-2.359301 1.04222,-4.336786 3.12667,-5.932457 1.32702,-0.881784 2.7038,-1.322055 4.12785,-1.322055 z"
             inkscape:connector-curvature="0" />
          <path
             style="fill:#414042"
             id="path4122"
             d="m 136.12877,100.87468 c -1.08699,1.01487 -2.52099,1.52354 -4.30197,1.52354 h -0.38803 c -2.45881,0 -4.50718,-1.22877 -6.14513,-3.687579 -0.59698,-1.193958 -0.89547,-2.39164 -0.89547,-3.594297 0,-2.688884 1.31833,-4.823079 3.95497,-6.400092 1.12183,-0.526087 2.21753,-0.788507 3.28711,-0.788507 2.73365,0 4.8977,1.335736 6.49338,4.008451 0.49001,1.095703 0.73502,2.222496 0.73502,3.38038 v 5.784464 c 0,0.71265 -0.43779,1.1442 -1.30962,1.29594 h -0.0933 c -0.60569,0 -1.05591,-0.3557 -1.34942,-1.06835 v -0.14675 l 0.0124,-0.3072 z m -8.97828,-5.811813 v 0.146755 c 0,1.825756 0.9166,3.197557 2.7523,4.115419 0.56962,0.213913 1.08202,0.320869 1.53598,0.320869 h 0.38803 c 1.51359,0 2.76601,-0.761146 3.75474,-2.284683 0.35571,-0.7114 0.53479,-1.394194 0.53479,-2.044651 v -0.200232 c 0,-1.753618 -0.86809,-3.099307 -2.60555,-4.034571 -0.59697,-0.267396 -1.22008,-0.400472 -1.87053,-0.400472 h -0.0534 c -1.84316,0 -3.23362,0.961382 -4.16889,2.88539 -0.17784,0.588269 -0.26739,1.086993 -0.26739,1.496176 z"
             inkscape:connector-curvature="0" />
          <path
             style="fill:#414042"
             id="path4124"
             d="m 142.85471,82.531321 h 0.24004 c 0.84572,0.179092 1.26982,0.579564 1.26982,1.202659 v 15.898247 h 0.65419 c 0.64922,0 1.06833,0.440263 1.25613,1.322063 v 0.10696 c -0.15173,0.89048 -0.60567,1.33573 -1.36309,1.33573 h -1.95013 c -0.74,0 -1.19395,-0.45396 -1.3631,-1.3631 V 84.001376 c 0.10696,-0.980038 0.52484,-1.470055 1.25614,-1.470055 z"
             inkscape:connector-curvature="0" />
          <path
             style="fill:#414042"
             id="path4126"
             d="m 148.28473,82.397 0.66785,0.106958 h 3.00603 l 0.20024,-0.0398 c 1.69144,0 3.12169,0.779802 4.28828,2.338161 0.59574,0.873079 0.89547,1.822024 0.89547,2.84559 v 0.146758 c 0,1.247434 -0.37933,2.303336 -1.1355,3.166466 2.03097,1.114357 3.04583,2.8941 3.04583,5.344194 0,2.458797 -1.27356,4.346743 -3.82066,5.665063 -0.8283,0.28481 -1.56831,0.42783 -2.21752,0.42783 h -4.56935 c -0.88179,-0.16044 -1.32207,-0.61438 -1.32207,-1.3631 V 83.840938 c 0.13307,-0.89049 0.45395,-1.335736 0.9614,-1.335736 V 82.397 z m 1.8046,2.872952 v 4.849195 h 1.45637 c 1.47006,0 2.40532,-0.502455 2.8058,-1.509854 0.11566,-0.293514 0.17411,-0.583296 0.17411,-0.868104 v -0.146758 c 0,-1.104407 -0.64671,-1.861821 -1.93768,-2.271 l -1.00243,-0.05347 h -1.49617 z m 0,7.615192 v 6.747083 h 2.21752 c 1.77228,0 2.95255,-0.490015 3.54082,-1.470056 0.39177,-0.560911 0.58827,-1.180277 0.58827,-1.856846 v -0.09328 c 0,-1.611841 -0.88177,-2.688883 -2.64536,-3.233625 l -1.34941,-0.09328 h -2.35184 z"
             inkscape:connector-curvature="0" />
          <path
             style="fill:#414042"
             id="path4128"
             d="m 162.9741,87.822029 c 0.87307,0.223867 1.30961,0.641752 1.30961,1.256141 v 0.213915 c 1.1044,-0.978792 2.54336,-1.470056 4.31564,-1.470056 0.95392,0 1.98619,0.240036 3.09931,0.721349 0.38305,0.391765 0.57459,0.76985 0.57459,1.135499 v 0.09328 c -0.15174,0.873079 -0.6007,1.309618 -1.34942,1.309618 h -0.12064 c -0.91661,-0.293513 -1.58448,-0.440271 -2.00361,-0.440271 h -0.2935 c -1.7984,0 -3.11797,0.935265 -3.95497,2.805792 -0.17911,0.490018 -0.2674,1.06088 -0.2674,1.71009 v 5.932464 c 0,0.72134 -0.44525,1.15788 -1.33574,1.30961 h -0.0796 c -0.73005,0 -1.18028,-0.45395 -1.34942,-1.3631 V 89.359245 c 0.10571,-1.024811 0.592,-1.537216 1.45514,-1.537216 z"
             inkscape:connector-curvature="0" />
          <path
             style="fill:#414042"
             id="path4130"
             d="m 175.64616,84.415529 c 0.88179,0.222622 1.32207,0.64175 1.32207,1.256139 v 0.293513 c 0,0.702692 -0.47759,1.12182 -1.42902,1.256141 -0.68653,0 -1.13549,-0.467632 -1.34942,-1.402896 0.1878,-0.935265 0.67285,-1.402897 1.45637,-1.402897 z m 0,3.420181 c 0.88179,0.222623 1.32207,0.641751 1.32207,1.256139 V 101.0886 c 0,0.72135 -0.44525,1.15788 -1.33574,1.30962 h -0.0796 c -0.7313,0 -1.18028,-0.45394 -1.34943,-1.3631 V 89.358002 c 0.10696,-1.014861 0.58828,-1.522292 1.4427,-1.522292 z"
             inkscape:connector-curvature="0" />
          <path
             style="fill:#414042"
             id="path4132"
             d="m 186.11317,87.889189 c 1.87053,0 3.58061,0.712641 5.13027,2.137925 0.15173,0.276102 0.22759,0.53106 0.22759,0.761146 v 0.09328 c -0.16043,0.873079 -0.6094,1.30962 -1.34941,1.30962 h -0.0534 c -0.32958,0 -0.93527,-0.334558 -1.81705,-1.002426 -0.65916,-0.337043 -1.32207,-0.50743 -1.99117,-0.50743 h -0.29352 c -1.77227,0 -3.11796,0.935264 -4.03458,2.805794 -0.21391,0.633043 -0.32087,1.202657 -0.32087,1.710091 0,1.808341 0.94024,3.185117 2.81948,4.127855 0.55221,0.213913 1.14918,0.320869 1.78969,0.320869 1.05093,0 2.11927,-0.457687 3.20626,-1.375539 l 0.54723,-0.120638 h 0.20025 c 0.71263,0 1.14419,0.436541 1.29593,1.309622 v 0.07956 c 0,0.873072 -1.1666,1.754862 -3.49977,2.645352 -0.76614,0.14178 -1.33574,0.21391 -1.7101,0.21391 h -0.40047 c -1.95883,0 -3.77588,-0.91661 -5.45115,-2.752314 -1.03352,-1.451393 -1.54965,-2.952541 -1.54965,-4.502201 0,-2.359301 1.04222,-4.336786 3.12667,-5.932457 1.32827,-0.881784 2.7038,-1.322055 4.12785,-1.322055 z"
             inkscape:connector-curvature="0" />
          <path
             style="fill:#414042"
             id="path4134"
             d="m 197.99674,95.076542 -1.67029,1.068345 v 4.943713 c 0,0.72135 -0.44524,1.15788 -1.33574,1.30962 h -0.0796 c -0.68651,0 -1.14047,-0.41912 -1.36309,-1.25614 V 83.746418 c 0.18655,-0.881786 0.60568,-1.322056 1.25614,-1.322056 h 0.24003 c 0.85567,0.186555 1.28226,0.593246 1.28226,1.21634 v 9.218323 c 4.35544,-2.88539 6.96722,-4.573095 7.82909,-5.063113 h 0.36193 c 0.76488,0 1.21883,0.476338 1.3631,1.429014 0,0.588271 -0.60693,1.20266 -1.81706,1.843167 -1.98742,1.344442 -3.21621,2.187672 -3.68882,2.524717 l 5.42504,6.86648 0.0797,0.44027 v 0.12064 c -0.16044,0.88178 -0.61439,1.32205 -1.3631,1.32205 h -0.0945 c -0.5348,0 -1.23375,-0.62309 -2.09688,-1.87053 l -4.32808,-5.395178 z"
             inkscape:connector-curvature="0" />
          <path
             style="fill:#414042"
             id="path4136"
             d="m 216.30653,97.628615 c -0.007,-0.177842 -0.19153,-0.284803 -0.54599,-0.320866 -4.50842,-1.006156 -6.91374,-1.646663 -7.21472,-1.924013 -0.91785,-0.695222 -1.37678,-1.554624 -1.37678,-2.578189 0,-1.389218 0.97134,-2.707542 2.91276,-3.954976 1.06835,-0.56091 2.12549,-0.841986 3.1677,-0.841986 2.43891,0 4.36789,1.126794 5.78322,3.380383 l 0.0534,0.493749 v 0.0796 c 0,0.757411 -0.45394,1.202657 -1.3631,1.335738 -0.60444,0 -1.16659,-0.427839 -1.68397,-1.282259 -0.80841,-0.792239 -1.74118,-1.188979 -2.79086,-1.188979 -1.37305,0 -2.44637,0.641749 -3.2212,1.924009 l -0.0261,0.133073 c 0,0.179093 0.3843,0.29849 1.14917,0.360678 3.83061,0.926554 5.94614,1.465079 6.34786,1.616813 1.0957,0.721342 1.64169,1.634219 1.64169,2.738632 v 0.0398 c 0,1.523532 -1.0758,2.899068 -3.23362,4.127848 -0.93527,0.41788 -1.91904,0.62807 -2.95131,0.62807 -2.13793,0 -3.94254,-0.99745 -5.41259,-2.992348 -0.18656,-0.267396 -0.27984,-0.526086 -0.27984,-0.77483 v -0.29351 c 0,-0.721349 0.48878,-1.135509 1.47006,-1.242463 0.47136,0 1.02729,0.458934 1.66905,1.375531 0.78477,0.730055 1.70262,1.095712 2.7523,1.095712 1.24868,0 2.28096,-0.583297 3.09931,-1.749889 l 0.0534,-0.185324 z"
             inkscape:connector-curvature="0" />
        </g>
      </g>
      <path
         style="fill:none;stroke:#be1e2d;stroke-width:4;stroke-miterlimit:10"
         id="path4156"
         d="m 739.00772,642.9641 h -74.615 c -1.867,0 -3.38,1.514 -3.38,3.38 v 8.606 h 17.437 c 1.865,0 3.379,1.513 3.379,3.379 v 5.322 h 29.559 c 1.867,0 3.379,1.514 3.379,3.379 v 8.486 h 24.242 c 1.867,0 3.381,-1.514 3.381,-3.379 v -25.793 c -10e-4,-1.867 -1.515,-3.38 -3.382,-3.38 z"
         inkscape:connector-curvature="0" />
      <path
         style="fill:none;stroke:#f7941e;stroke-width:4;stroke-miterlimit:10"
         id="path4158"
         d="m 681.82772,684.1221 c 0,1.867 -1.514,3.381 -3.379,3.381 h -45.059 v 5.32 c 0,1.867 1.513,3.381 3.381,3.381 h 74.615 c 1.867,0 3.379,-1.514 3.379,-3.381 v -17.307 h -32.938 v 8.606 z"
         inkscape:connector-curvature="0" />
      <path
         style="fill:none;stroke:#004e7f;stroke-width:4;stroke-miterlimit:10"
         id="path4160"
         d="m 636.77072,663.6511 h 24.241 v -8.701 h -57.18 c -1.866,0 -3.38,1.513 -3.38,3.379 v 25.793 c 0,1.867 1.514,3.381 3.38,3.381 h 29.558 v -20.473 c 0,-1.865 1.513,-3.379 3.381,-3.379 z"
         inkscape:connector-curvature="0" />
      <path
         style="font-size:16px;font-style:normal;font-variant:normal;font-weight:normal;font-stretch:normal;line-height:125%;letter-spacing:0px;word-spacing:0px;fill:#333333;fill-opacity:1;stroke:none;font-family:Comfortaa;-inkscape-font-specification:Comfortaa"
         id="path3116"
         d="m 633.28674,726.8194 c 0.96875,10e-6 1.77604,0.43751 2.42188,1.3125 l 0.0312,0.125 0,0.17968 c -10e-6,0.25522 -0.19011,0.41408 -0.57031,0.47657 -0.15626,10e-6 -0.42449,-0.21093 -0.80469,-0.63282 -0.34376,-0.21874 -0.67188,-0.32811 -0.98438,-0.32812 l -0.17968,0 c -0.65626,10e-6 -1.15365,0.34897 -1.49219,1.04687 -0.0781,0.16668 -0.11719,0.33595 -0.11719,0.50782 l 0,0.24218 c 0,0.75522 0.45573,1.30209 1.36719,1.64063 0.65624,10e-6 1.36458,0.3073 2.125,0.92187 0.73437,0.7448 1.10155,1.56251 1.10156,2.45313 -10e-6,1.09375 -0.46876,1.98958 -1.40625,2.6875 -0.57292,0.39583 -1.20834,0.59375 -1.90625,0.59375 -1.13021,0 -2.0651,-0.48698 -2.80469,-1.46094 l -0.0625,-0.24219 c 0.0677,-0.37499 0.25782,-0.56249 0.57032,-0.5625 0.20833,10e-6 0.47656,0.20834 0.80468,0.625 0.48958,0.33855 0.9375,0.50782 1.34375,0.50782 l 0.26563,0 c 0.79166,0 1.42968,-0.44792 1.91406,-1.34375 0.0781,-0.29167 0.11718,-0.51042 0.11719,-0.65625 l 0,-0.29688 c -10e-6,-0.78645 -0.44792,-1.42447 -1.34375,-1.91406 l -1.52344,-0.42188 c -1.13542,-0.65103 -1.70313,-1.5052 -1.70312,-2.5625 l 0,-0.21093 c -10e-6,-1.04166 0.55729,-1.85676 1.67187,-2.44532 0.41666,-0.16144 0.80468,-0.24217 1.16406,-0.24218"
         inkscape:connector-curvature="0" />
      <path
         style="font-size:16px;font-style:normal;font-variant:normal;font-weight:normal;font-stretch:normal;line-height:125%;letter-spacing:0px;word-spacing:0px;fill:#333333;fill-opacity:1;stroke:none;font-family:Comfortaa;-inkscape-font-specification:Comfortaa"
         id="path3118"
         d="m 642.89612,726.83502 c 1.89062,10e-6 3.47134,0.87501 4.74219,2.625 0.5729,0.9948 0.85936,1.9974 0.85937,3.00781 -10e-6,1.8698 -0.84636,3.42449 -2.53906,4.66407 -0.95834,0.60937 -1.96095,0.91406 -3.00781,0.91406 l -0.11719,0 c -1.92709,0 -3.5,-0.89583 -4.71875,-2.6875 -0.55209,-0.90625 -0.82813,-1.88802 -0.82813,-2.94531 0,-1.78645 0.78646,-3.29166 2.35938,-4.51563 1.02083,-0.70832 2.10416,-1.06249 3.25,-1.0625 m -4.46094,5.66406 c 0,1.42709 0.63021,2.62761 1.89063,3.60157 0.78645,0.53125 1.62239,0.79687 2.50781,0.79687 l 0.14844,0 c 1.39582,0 2.57551,-0.61979 3.53906,-1.85937 0.55207,-0.79687 0.82811,-1.66406 0.82812,-2.60157 -10e-6,-1.60936 -0.73699,-2.8854 -2.21093,-3.82812 -0.72918,-0.41666 -1.47657,-0.62499 -2.24219,-0.625 -1.47396,10e-6 -2.69532,0.64063 -3.66406,1.92187 -0.53126,0.76564 -0.79688,1.63022 -0.79688,2.59375"
         inkscape:connector-curvature="0" />
      <path
         style="font-size:16px;font-style:normal;font-variant:normal;font-weight:normal;font-stretch:normal;line-height:125%;letter-spacing:0px;word-spacing:0px;fill:#333333;fill-opacity:1;stroke:none;font-family:Comfortaa;-inkscape-font-specification:Comfortaa"
         id="path3120"
         d="m 650.31799,726.85065 0.11719,0 c 0.35417,0.0729 0.53125,0.22917 0.53125,0.46875 l 0,9.57812 4.82031,0 c 0.3177,0 0.5052,0.20573 0.5625,0.61719 -0.10417,0.35417 -0.29167,0.53125 -0.5625,0.53125 l -5.40625,0 c -0.30208,0 -0.48958,-0.19792 -0.5625,-0.59375 l 0,-9.95313 c 0.0469,-0.43228 0.21354,-0.64842 0.5,-0.64843"
         inkscape:connector-curvature="0" />
      <path
         style="font-size:16px;font-style:normal;font-variant:normal;font-weight:normal;font-stretch:normal;line-height:125%;letter-spacing:0px;word-spacing:0px;fill:#333333;fill-opacity:1;stroke:none;font-family:Comfortaa;-inkscape-font-specification:Comfortaa"
         id="path3122"
         d="m 658.05237,726.85065 0.11719,0 c 0.35416,0.0729 0.53124,0.22917 0.53125,0.46875 l 0,6.29687 c -1e-5,1.35417 0.38541,2.26042 1.15625,2.71875 0.48437,0.375 1.02603,0.5625 1.625,0.5625 1.15103,0 2.01822,-0.59114 2.60156,-1.77344 0.11978,-0.36978 0.17968,-0.7552 0.17969,-1.15625 l 0,-6.5625 c 0.0625,-0.36978 0.23957,-0.55467 0.53125,-0.55468 l 0.0859,0 c 0.35416,0.0677 0.53124,0.2448 0.53125,0.53125 l 0,6.88281 c -10e-6,1.17188 -0.5625,2.19531 -1.6875,3.07031 -0.70834,0.47396 -1.42709,0.71094 -2.15625,0.71094 l -0.20312,0 c -1.22396,0 -2.28907,-0.60156 -3.19531,-1.80469 -0.41146,-0.64583 -0.61719,-1.4427 -0.61719,-2.39062 l 0,-6.35157 c 0.0469,-0.43228 0.21354,-0.64842 0.5,-0.64843"
         inkscape:connector-curvature="0" />
      <path
         style="font-size:16px;font-style:normal;font-variant:normal;font-weight:normal;font-stretch:normal;line-height:125%;letter-spacing:0px;word-spacing:0px;fill:#333333;fill-opacity:1;stroke:none;font-family:Comfortaa;-inkscape-font-specification:Comfortaa"
         id="path3124"
         d="m 667.16174,726.82721 7.28907,0 c 0.35415,0.0677 0.53124,0.2448 0.53125,0.53125 l 0,0.11719 c -1e-5,0.28647 -0.21616,0.45313 -0.64844,0.5 l -2.9375,0 0,9.53906 c -10e-6,0.29167 -0.18751,0.46875 -0.5625,0.53125 l -0.0234,0 c -0.30209,0 -0.48959,-0.19792 -0.5625,-0.59375 l 0,-9.47656 -2.99219,0 c -0.39583,-0.0781 -0.59375,-0.27343 -0.59375,-0.58594 0.0833,-0.37499 0.25,-0.56249 0.5,-0.5625"
         inkscape:connector-curvature="0" />
      <path
         style="font-size:16px;font-style:normal;font-variant:normal;font-weight:normal;font-stretch:normal;line-height:125%;letter-spacing:0px;word-spacing:0px;fill:#333333;fill-opacity:1;stroke:none;font-family:Comfortaa;-inkscape-font-specification:Comfortaa"
         id="path3126"
         d="m 676.95862,726.73346 0.14844,0.0234 1.10937,0 0.11719,-0.0234 c 0.39583,0.0833 0.59375,0.28126 0.59375,0.59375 -0.0677,0.39584 -0.25521,0.59376 -0.5625,0.59375 l -0.125,0 0,8.96094 0.17969,0 c 0.26041,0 0.42968,0.1901 0.50781,0.57031 l 0,0.0312 c -0.0677,0.375 -0.25521,0.5625 -0.5625,0.5625 l -1.40625,0 c -0.375,-0.0677 -0.5625,-0.25521 -0.5625,-0.5625 l 0,-0.0312 c 0.0781,-0.38021 0.24739,-0.57031 0.50781,-0.57031 l 0.17969,0 0,-8.96094 -0.125,0 c -0.32813,10e-6 -0.51563,-0.20832 -0.5625,-0.625 l 0,-0.0312 c 0,-0.24478 0.1875,-0.42186 0.5625,-0.53125"
         inkscape:connector-curvature="0" />
      <path
         style="font-size:16px;font-style:normal;font-variant:normal;font-weight:normal;font-stretch:normal;line-height:125%;letter-spacing:0px;word-spacing:0px;fill:#333333;fill-opacity:1;stroke:none;font-family:Comfortaa;-inkscape-font-specification:Comfortaa"
         id="path3128"
         d="m 686.05237,726.83502 c 1.89062,10e-6 3.47134,0.87501 4.74219,2.625 0.5729,0.9948 0.85936,1.9974 0.85937,3.00781 -10e-6,1.8698 -0.84636,3.42449 -2.53906,4.66407 -0.95834,0.60937 -1.96095,0.91406 -3.00781,0.91406 l -0.11719,0 c -1.92709,0 -3.5,-0.89583 -4.71875,-2.6875 -0.55209,-0.90625 -0.82813,-1.88802 -0.82813,-2.94531 0,-1.78645 0.78646,-3.29166 2.35938,-4.51563 1.02083,-0.70832 2.10416,-1.06249 3.25,-1.0625 m -4.46094,5.66406 c 0,1.42709 0.63021,2.62761 1.89063,3.60157 0.78645,0.53125 1.62239,0.79687 2.50781,0.79687 l 0.14844,0 c 1.39582,0 2.57551,-0.61979 3.53906,-1.85937 0.55207,-0.79687 0.82811,-1.66406 0.82812,-2.60157 -10e-6,-1.60936 -0.73699,-2.8854 -2.21093,-3.82812 -0.72918,-0.41666 -1.47657,-0.62499 -2.24219,-0.625 -1.47396,10e-6 -2.69532,0.64063 -3.66406,1.92187 -0.53126,0.76564 -0.79688,1.63022 -0.79688,2.59375"
         inkscape:connector-curvature="0" />
      <path
         style="font-size:16px;font-style:normal;font-variant:normal;font-weight:normal;font-stretch:normal;line-height:125%;letter-spacing:0px;word-spacing:0px;fill:#333333;fill-opacity:1;stroke:none;font-family:Comfortaa;-inkscape-font-specification:Comfortaa"
         id="path3130"
         d="m 693.41174,726.86627 0.11719,0 c 0.25,10e-6 0.46615,0.19533 0.64844,0.58594 0.29166,0.32813 2.42968,3.06511 6.41406,8.21094 0.0417,0 0.0625,0.0286 0.0625,0.0859 l 0.0234,0.0312 0.0312,0 0,-8.38281 c 0.0677,-0.35415 0.24478,-0.53124 0.53125,-0.53125 l 0.0859,0 c 0.29165,1e-5 0.46874,0.18491 0.53125,0.55469 l 0,10.03906 c -1e-5,0.32292 -0.20574,0.51823 -0.61719,0.58594 -0.22397,0 -0.56772,-0.34375 -1.03125,-1.03125 l -6.14844,-7.85156 0,8.32031 c 0,0.29167 -0.1875,0.46875 -0.5625,0.53125 l -0.0234,0 c -0.30208,0 -0.48958,-0.19531 -0.5625,-0.58594 l 0,-9.91406 c 0.0469,-0.43228 0.21354,-0.64843 0.5,-0.64844"
         inkscape:connector-curvature="0" />
      <path
         style="font-size:16px;font-style:normal;font-variant:normal;font-weight:normal;font-stretch:normal;line-height:125%;letter-spacing:0px;word-spacing:0px;fill:#333333;fill-opacity:1;stroke:none;font-family:Comfortaa;-inkscape-font-specification:Comfortaa"
         id="path3132"
         d="m 706.47424,726.8194 c 0.96875,10e-6 1.77604,0.43751 2.42188,1.3125 l 0.0312,0.125 0,0.17968 c -10e-6,0.25522 -0.19011,0.41408 -0.57031,0.47657 -0.15626,10e-6 -0.42449,-0.21093 -0.80469,-0.63282 -0.34376,-0.21874 -0.67188,-0.32811 -0.98438,-0.32812 l -0.17968,0 c -0.65626,10e-6 -1.15365,0.34897 -1.49219,1.04687 -0.0781,0.16668 -0.11719,0.33595 -0.11719,0.50782 l 0,0.24218 c 0,0.75522 0.45573,1.30209 1.36719,1.64063 0.65624,10e-6 1.36458,0.3073 2.125,0.92187 0.73437,0.7448 1.10155,1.56251 1.10156,2.45313 -10e-6,1.09375 -0.46876,1.98958 -1.40625,2.6875 -0.57292,0.39583 -1.20834,0.59375 -1.90625,0.59375 -1.13021,0 -2.0651,-0.48698 -2.80469,-1.46094 l -0.0625,-0.24219 c 0.0677,-0.37499 0.25782,-0.56249 0.57032,-0.5625 0.20833,10e-6 0.47656,0.20834 0.80468,0.625 0.48958,0.33855 0.9375,0.50782 1.34375,0.50782 l 0.26563,0 c 0.79166,0 1.42968,-0.44792 1.91406,-1.34375 0.0781,-0.29167 0.11718,-0.51042 0.11719,-0.65625 l 0,-0.29688 c -10e-6,-0.78645 -0.44792,-1.42447 -1.34375,-1.91406 l -1.52344,-0.42188 c -1.13542,-0.65103 -1.70313,-1.5052 -1.70312,-2.5625 l 0,-0.21093 c -10e-6,-1.04166 0.55729,-1.85676 1.67187,-2.44532 0.41666,-0.16144 0.80468,-0.24217 1.16406,-0.24218"
         inkscape:connector-curvature="0" />
    </g>
    <g
       id="g3223"
       transform="translate(-523.16451,337.4671)">
      <path
         stroke-miterlimit="10"
         d="m 178.984,73.142 h 23.08 V 46.218 c 0,-4.135 -4.164,-7.486 -9.3,-7.486 h -36.173"
         id="path5"
         inkscape:connector-curvature="0"
         style="fill:none;stroke:#b9cc29;stroke-width:5;stroke-miterlimit:10" />
      <path
         stroke-miterlimit="10"
         d="M 107.45,30.512 H 92.505 c -5.65,0 -10.225,4.786 -10.225,10.687 v 31.943 h 25.17"
         id="path7"
         inkscape:connector-curvature="0"
         style="fill:none;stroke:#be1e2d;stroke-width:5;stroke-miterlimit:10" />
      <path
         stroke-miterlimit="10"
         d="M 156.698,57.381 V 30.512 25.641 c 0,-5.41 -4.382,-9.795 -9.79,-9.795 h -29.662 c -5.408,0 -9.796,4.385 -9.796,9.795 v 4.871 42.631 h 24.624"
         id="path9"
         inkscape:connector-curvature="0"
         style="fill:none;stroke:#004e7f;stroke-width:5;stroke-miterlimit:10" />
      <path
         stroke-miterlimit="10"
         d="M 171.532,57.381 H 156.7 141.87 c -5.41,0 -9.795,4.385 -9.795,9.795 v 5.967 h 24.625 24.625 v -5.967 c 0,-5.41 -4.386,-9.795 -9.793,-9.795 z"
         id="path11"
         inkscape:connector-curvature="0"
         style="fill:none;stroke:#f7941e;stroke-width:5;stroke-miterlimit:10" />
      <g
         id="g13">
        <path
           d="m 66.592,87.925 h 0.232 c 0.818,0.172 1.228,0.561 1.228,1.163 v 15.455 h 7.585 c 0.75,0 1.193,0.478 1.331,1.435 -0.25,0.826 -0.693,1.24 -1.331,1.24 h -8.941 c -0.716,0 -1.155,-0.443 -1.318,-1.331 V 89.359 c 0.102,-0.956 0.507,-1.434 1.214,-1.434 z"
           id="path15"
           inkscape:connector-curvature="0"
           style="fill:#231f20" />
        <path
           d="m 84.869,93.288 c 1.801,0 3.429,0.68 4.885,2.041 1.387,1.456 2.08,3.098 2.08,4.924 0,2.609 -1.231,4.66 -3.695,6.15 -1.077,0.543 -2.119,0.814 -3.127,0.814 h -0.388 c -1.878,0 -3.623,-0.879 -5.233,-2.637 -0.991,-1.395 -1.486,-2.838 -1.486,-4.328 0,-2.266 0.999,-4.161 2.998,-5.686 1.274,-0.852 2.597,-1.278 3.966,-1.278 z m -4.264,6.822 v 0.232 c 0,1.611 0.779,2.861 2.339,3.748 0.551,0.284 1.146,0.426 1.783,0.426 h 0.284 c 1.662,0 2.938,-0.865 3.825,-2.598 0.197,-0.533 0.297,-1.059 0.297,-1.576 v -0.232 c 0,-1.335 -0.616,-2.463 -1.848,-3.385 -0.716,-0.492 -1.538,-0.737 -2.469,-0.737 -1.817,0 -3.152,0.956 -4.006,2.868 -0.136,0.45 -0.205,0.867 -0.205,1.254 z"
           id="path17"
           inkscape:connector-curvature="0"
           style="fill:#231f20" />
        <path
           d="m 99.528,93.249 c 2.076,0 3.873,0.861 5.389,2.584 1.051,1.439 1.577,2.805 1.577,4.097 l -0.052,1.628 v 5.803 c 0,1.215 -0.888,2.502 -2.662,3.863 -1.353,0.887 -2.77,1.331 -4.252,1.331 -2.532,0 -4.626,-1.129 -6.28,-3.386 -0.327,-0.551 -0.49,-0.943 -0.49,-1.176 v -0.143 c 0,-0.629 0.404,-1.033 1.214,-1.215 h 0.182 c 0.611,0 1.09,0.466 1.435,1.396 1.051,1.318 2.364,1.977 3.94,1.977 1.887,0 3.3,-0.844 4.239,-2.533 l 0.077,-0.516 v -1.254 c -1.06,0.982 -2.451,1.473 -4.174,1.473 h -0.388 c -1.878,0 -3.623,-0.879 -5.233,-2.636 -0.991,-1.396 -1.486,-2.839 -1.486,-4.329 0,-2.266 0.999,-4.16 2.998,-5.686 1.275,-0.852 2.597,-1.278 3.966,-1.278 z m -4.315,6.822 v 0.232 c 0,1.793 0.943,3.128 2.83,4.006 0.49,0.147 0.938,0.221 1.344,0.221 h 0.284 c 1.749,0 3.071,-0.939 3.967,-2.817 0.138,-0.56 0.207,-0.995 0.207,-1.306 v -0.297 c 0,-1.783 -0.952,-3.118 -2.855,-4.006 -0.595,-0.138 -1.052,-0.207 -1.37,-0.207 h -0.181 c -1.749,0 -3.071,0.927 -3.968,2.779 -0.172,0.509 -0.258,0.973 -0.258,1.395 z"
           id="path19"
           inkscape:connector-curvature="0"
           style="fill:#231f20" />
        <path
           d="m 110.26,89.825 c 0.853,0.215 1.279,0.619 1.279,1.214 v 0.284 c 0,0.681 -0.461,1.086 -1.383,1.215 -0.663,0 -1.099,-0.452 -1.305,-1.357 0.181,-0.905 0.651,-1.356 1.409,-1.356 z m 0,3.308 c 0.853,0.216 1.279,0.62 1.279,1.214 v 11.604 c 0,0.698 -0.431,1.12 -1.292,1.267 h -0.078 c -0.706,0 -1.142,-0.439 -1.305,-1.318 V 94.605 c 0.104,-0.981 0.569,-1.472 1.396,-1.472 z"
           id="path21"
           inkscape:connector-curvature="0"
           style="fill:#231f20" />
        <path
           d="m 120.357,93.185 c 1.81,0 3.463,0.689 4.962,2.067 0.146,0.267 0.22,0.513 0.22,0.736 v 0.091 c -0.154,0.844 -0.59,1.266 -1.305,1.266 h -0.052 c -0.319,0 -0.904,-0.322 -1.758,-0.969 -0.638,-0.327 -1.279,-0.491 -1.925,-0.491 h -0.284 c -1.715,0 -3.016,0.905 -3.903,2.714 -0.206,0.611 -0.31,1.163 -0.31,1.654 0,1.748 0.908,3.08 2.727,3.992 0.534,0.207 1.111,0.311 1.731,0.311 1.017,0 2.05,-0.443 3.102,-1.331 l 0.529,-0.116 h 0.194 c 0.688,0 1.106,0.422 1.253,1.267 v 0.077 c 0,0.845 -1.128,1.697 -3.386,2.559 -0.74,0.139 -1.292,0.207 -1.653,0.207 h -0.388 c -1.896,0 -3.653,-0.887 -5.272,-2.662 -0.999,-1.404 -1.499,-2.855 -1.499,-4.354 0,-2.282 1.008,-4.195 3.023,-5.737 1.285,-0.856 2.616,-1.281 3.994,-1.281 z"
           id="path23"
           inkscape:connector-curvature="0"
           style="fill:#231f20" />
        <path
           d="m 137.872,105.745 c -1.051,0.981 -2.438,1.473 -4.161,1.473 h -0.375 c -2.377,0 -4.358,-1.189 -5.943,-3.566 -0.578,-1.154 -0.866,-2.313 -0.866,-3.477 0,-2.602 1.274,-4.664 3.825,-6.189 1.085,-0.508 2.145,-0.762 3.179,-0.762 2.645,0 4.738,1.291 6.28,3.876 0.474,1.06 0.711,2.149 0.711,3.27 v 5.595 c 0,0.689 -0.423,1.107 -1.267,1.254 h -0.091 c -0.586,0 -1.021,-0.345 -1.305,-1.033 v -0.143 l 0.013,-0.298 z m -8.684,-5.621 v 0.142 c 0,1.767 0.887,3.093 2.662,3.979 0.551,0.207 1.047,0.311 1.485,0.311 h 0.375 c 1.465,0 2.675,-0.736 3.631,-2.209 0.345,-0.689 0.518,-1.349 0.518,-1.978 v -0.194 c 0,-1.697 -0.84,-2.998 -2.521,-3.902 -0.577,-0.258 -1.18,-0.388 -1.809,-0.388 h -0.052 c -1.783,0 -3.127,0.931 -4.032,2.792 -0.171,0.568 -0.257,1.051 -0.257,1.447 z"
           id="path25"
           inkscape:connector-curvature="0"
           style="fill:#231f20" />
        <path
           d="m 144.379,88.003 h 0.232 c 0.818,0.172 1.228,0.56 1.228,1.162 v 15.378 h 0.634 c 0.628,0 1.033,0.427 1.214,1.279 v 0.103 c -0.146,0.862 -0.586,1.293 -1.317,1.293 h -1.887 c -0.716,0 -1.154,-0.439 -1.318,-1.318 V 89.424 c 0.103,-0.947 0.508,-1.421 1.214,-1.421 z"
           id="path27"
           inkscape:connector-curvature="0"
           style="fill:#231f20" />
        <path
           d="m 149.631,87.873 0.646,0.104 h 2.908 l 0.193,-0.038 c 1.637,0 3.02,0.754 4.148,2.261 0.577,0.845 0.865,1.762 0.865,2.753 v 0.142 c 0,1.206 -0.366,2.228 -1.099,3.063 1.965,1.077 2.946,2.8 2.946,5.169 0,2.378 -1.231,4.204 -3.695,5.479 -0.801,0.276 -1.517,0.414 -2.146,0.414 h -4.419 c -0.853,-0.155 -1.279,-0.594 -1.279,-1.318 V 89.269 c 0.129,-0.861 0.439,-1.292 0.931,-1.292 v -0.104 z m 1.744,2.778 v 4.691 h 1.408 c 1.422,0 2.326,-0.487 2.714,-1.461 0.112,-0.284 0.168,-0.564 0.168,-0.84 v -0.143 c 0,-1.067 -0.624,-1.8 -1.873,-2.196 l -0.97,-0.052 h -1.447 z m 0,7.366 v 6.526 h 2.146 c 1.714,0 2.855,-0.474 3.424,-1.421 0.379,-0.543 0.568,-1.143 0.568,-1.797 v -0.09 c 0,-1.56 -0.853,-2.602 -2.559,-3.128 l -1.305,-0.091 h -2.274 z"
           id="path29"
           inkscape:connector-curvature="0"
           style="fill:#231f20" />
        <path
           d="m 163.812,93.12 c 0.845,0.215 1.267,0.619 1.267,1.215 v 0.206 c 1.068,-0.947 2.46,-1.421 4.174,-1.421 0.922,0 1.921,0.232 2.998,0.697 0.37,0.379 0.556,0.745 0.556,1.099 v 0.091 c -0.146,0.844 -0.581,1.266 -1.305,1.266 h -0.117 c -0.887,-0.284 -1.533,-0.426 -1.938,-0.426 h -0.285 c -1.74,0 -3.015,0.904 -3.824,2.713 -0.173,0.475 -0.259,1.025 -0.259,1.654 v 5.737 c 0,0.698 -0.431,1.12 -1.292,1.267 h -0.078 c -0.706,0 -1.142,-0.439 -1.305,-1.318 V 94.605 c 0.103,-0.99 0.573,-1.485 1.408,-1.485 z"
           id="path31"
           inkscape:connector-curvature="0"
           style="fill:#231f20" />
        <path
           d="m 176.068,89.825 c 0.853,0.215 1.279,0.619 1.279,1.214 v 0.284 c 0,0.681 -0.461,1.086 -1.383,1.215 -0.663,0 -1.099,-0.452 -1.305,-1.357 0.182,-0.905 0.652,-1.356 1.409,-1.356 z m 0,3.308 c 0.853,0.216 1.279,0.62 1.279,1.214 v 11.604 c 0,0.698 -0.431,1.12 -1.292,1.267 h -0.078 c -0.706,0 -1.142,-0.439 -1.305,-1.318 V 94.605 c 0.104,-0.981 0.569,-1.472 1.396,-1.472 z"
           id="path33"
           inkscape:connector-curvature="0"
           style="fill:#231f20" />
        <path
           d="m 186.166,93.185 c 1.81,0 3.463,0.689 4.962,2.067 0.146,0.267 0.22,0.513 0.22,0.736 v 0.091 c -0.154,0.844 -0.59,1.266 -1.305,1.266 h -0.052 c -0.319,0 -0.904,-0.322 -1.758,-0.969 -0.638,-0.327 -1.279,-0.491 -1.925,-0.491 h -0.284 c -1.715,0 -3.016,0.905 -3.903,2.714 -0.206,0.611 -0.31,1.163 -0.31,1.654 0,1.748 0.908,3.08 2.727,3.992 0.534,0.207 1.111,0.311 1.731,0.311 1.017,0 2.05,-0.443 3.102,-1.331 l 0.529,-0.116 h 0.194 c 0.688,0 1.106,0.422 1.253,1.267 v 0.077 c 0,0.845 -1.128,1.697 -3.386,2.559 -0.74,0.139 -1.292,0.207 -1.653,0.207 h -0.388 c -1.896,0 -3.653,-0.887 -5.272,-2.662 -0.999,-1.404 -1.499,-2.855 -1.499,-4.354 0,-2.282 1.008,-4.195 3.023,-5.737 1.285,-0.856 2.616,-1.281 3.994,-1.281 z"
           id="path35"
           inkscape:connector-curvature="0"
           style="fill:#231f20" />
        <path
           d="m 197.634,100.136 -1.615,1.035 v 4.78 c 0,0.698 -0.431,1.12 -1.292,1.267 h -0.077 c -0.664,0 -1.104,-0.404 -1.318,-1.215 V 89.179 c 0.181,-0.854 0.586,-1.279 1.215,-1.279 h 0.232 c 0.827,0.181 1.24,0.572 1.24,1.176 v 8.916 c 4.213,-2.791 6.737,-4.424 7.572,-4.897 h 0.35 c 0.74,0 1.18,0.461 1.317,1.383 0,0.568 -0.586,1.163 -1.757,1.783 -1.922,1.301 -3.11,2.114 -3.566,2.442 l 5.246,6.643 0.077,0.426 v 0.116 c -0.154,0.853 -0.594,1.279 -1.317,1.279 h -0.091 c -0.517,0 -1.193,-0.603 -2.028,-1.81 l -4.188,-5.221 z"
           id="path37"
           inkscape:connector-curvature="0"
           style="fill:#231f20" />
        <path
           d="m 215.344,102.604 c -0.009,-0.172 -0.186,-0.275 -0.53,-0.311 -4.359,-0.973 -6.686,-1.594 -6.978,-1.86 -0.888,-0.672 -1.331,-1.503 -1.331,-2.494 0,-1.344 0.938,-2.618 2.816,-3.825 1.034,-0.543 2.055,-0.813 3.063,-0.813 2.36,0 4.226,1.09 5.596,3.269 l 0.052,0.479 v 0.078 c 0,0.732 -0.439,1.162 -1.318,1.292 -0.586,0 -1.129,-0.413 -1.628,-1.241 -0.784,-0.766 -1.685,-1.149 -2.701,-1.149 -1.326,0 -2.364,0.62 -3.114,1.86 l -0.025,0.129 c 0,0.173 0.37,0.289 1.111,0.35 3.704,0.896 5.75,1.417 6.138,1.563 1.06,0.698 1.59,1.581 1.59,2.649 v 0.039 c 0,1.473 -1.043,2.803 -3.127,3.992 -0.905,0.404 -1.857,0.607 -2.856,0.607 -2.067,0 -3.812,-0.965 -5.233,-2.895 -0.181,-0.258 -0.271,-0.508 -0.271,-0.75 v -0.283 c 0,-0.698 0.474,-1.1 1.422,-1.203 0.456,0 0.995,0.444 1.615,1.332 0.758,0.706 1.646,1.059 2.662,1.059 1.206,0 2.205,-0.563 2.998,-1.691 l 0.049,-0.183 z"
           id="path39"
           inkscape:connector-curvature="0"
           style="fill:#231f20" />
      </g>
      <text
         sodipodi:linespacing="125%"
         id="text3070"
         y="125.27103"
         x="97.705849"
         style="font-size:16px;font-style:normal;font-variant:normal;font-weight:normal;font-stretch:normal;line-height:125%;letter-spacing:0px;word-spacing:0px;fill:#29282a;fill-opacity:1;stroke:none;font-family:Comfortaa;-inkscape-font-specification:Comfortaa"
         xml:space="preserve"><tspan
           style="font-size:16px;font-style:normal;fill:#29282a;fill-opacity:1;-inkscape-font-specification:Comfortaa"
           y="125.27103"
           x="97.705849"
           id="tspan3072"
           sodipodi:role="line">COMMUNITY</tspan></text>
    </g>
    <text
       xml:space="preserve"
       style="font-size:49.04293059999999826px;font-style:normal;font-variant:normal;font-weight:normal;font-stretch:normal;line-height:125%;letter-spacing:0px;word-spacing:0px;fill:#f7941e;fill-opacity:1;stroke:none;font-family:Ubuntu;-inkscape-font-specification:Ubuntu"
       x="61.203293"
       y="257.86154"
       id="text3257"
       sodipodi:linespacing="125%"><tspan
         sodipodi:role="line"
         id="tspan3259"
         x="61.203293"
         y="257.86154">Scrum</tspan></text>
    <text
       xml:space="preserve"
       style="font-size:43.86123657000000264px;font-style:normal;font-variant:normal;font-weight:normal;font-stretch:normal;line-height:125%;letter-spacing:0px;word-spacing:0px;fill:#b9cc29;fill-opacity:1;stroke:none;font-family:Ubuntu;-inkscape-font-specification:Ubuntu"
       x="339.11612"
       y="403.75171"
       id="text3261"
       sodipodi:linespacing="125%"><tspan
         sodipodi:role="line"
         id="tspan3263"
         x="339.11612"
         y="403.75171">BDD</tspan></text>
    <text
       xml:space="preserve"
       style="font-size:53.15286255000000182px;font-style:normal;font-variant:normal;font-weight:normal;font-stretch:normal;line-height:125%;letter-spacing:0px;word-spacing:0px;fill:#004e7f;fill-opacity:1;stroke:none;font-family:Ubuntu;-inkscape-font-specification:Ubuntu"
       x="547.14526"
       y="401.86569"
       id="text3265"
       sodipodi:linespacing="125%"><tspan
         sodipodi:role="line"
         id="tspan3267"
         x="547.14526"
         y="401.86569">TDD</tspan></text>
    <text
       xml:space="preserve"
       style="font-size:62.13799285999999711px;font-style:normal;font-variant:normal;font-weight:normal;font-stretch:normal;line-height:125%;letter-spacing:0px;word-spacing:0px;fill:#be1e2d;fill-opacity:1;stroke:none;font-family:Ubuntu;-inkscape-font-specification:Ubuntu"
       x="297.99081"
       y="187.70686"
       id="text3269"
       sodipodi:linespacing="125%"><tspan
         sodipodi:role="line"
         id="tspan3271"
         x="297.99081"
         y="187.70686">Ruby on Rails</tspan></text>
    <text
       xml:space="preserve"
       style="font-size:41.13288115999999661px;font-style:normal;font-variant:normal;font-weight:normal;font-stretch:normal;line-height:125%;letter-spacing:0px;word-spacing:0px;fill:#be1e2d;fill-opacity:1;stroke:none;font-family:Ubuntu;-inkscape-font-specification:Ubuntu"
       x="277.7558"
       y="516.49548"
       id="text3273"
       sodipodi:linespacing="125%"><tspan
         sodipodi:role="line"
         id="tspan3275"
         x="277.7558"
         y="516.49548">Cucumber</tspan></text>
    <text
       xml:space="preserve"
       style="font-size:62.93778228999999413px;font-style:normal;font-variant:normal;font-weight:normal;font-stretch:normal;line-height:125%;letter-spacing:0px;word-spacing:0px;fill:#f7941e;fill-opacity:1;stroke:none;font-family:Ubuntu;-inkscape-font-specification:Ubuntu"
       x="530.74146"
       y="511.6254"
       id="text3277"
       sodipodi:linespacing="125%"><tspan
         sodipodi:role="line"
         id="tspan3279"
         x="530.74146"
         y="511.6254">RSpec</tspan></text>
    <rect
       style="color:#000000;fill:none;stroke:none;stroke-width:0.73659330999999983;stroke-miterlimit:4;stroke-opacity:1;stroke-dasharray:none;marker:none;visibility:visible;display:inline;overflow:visible;enable-background:accumulate"
       id="rect3319"
       width="194.00995"
       height="136.79346"
       x="-478.97919"
       y="94.676956" />
    <rect
       y="316.66101"
       x="-496.41971"
       height="171.42549"
       width="217.85326"
       id="rect3461"
       style="color:#000000;fill:none;stroke:none;stroke-width:1;stroke-miterlimit:4;stroke-opacity:1;stroke-dasharray:none;marker:none;visibility:visible;display:inline;overflow:visible;enable-background:accumulate" />
    <rect
       style="color:#000000;fill:none;stroke:none;stroke-width:1;stroke-miterlimit:4;stroke-opacity:1;stroke-dasharray:none;marker:none;visibility:visible;display:inline;overflow:visible;enable-background:accumulate"
       id="rect3605"
       width="285.70917"
       height="156.24719"
       x="-255.35258"
       y="168.44937" />
    <rect
       y="191.66325"
       x="27.678078"
       height="104.46243"
       width="207.13916"
       id="rect3751"
       style="color:#000000;fill:none;stroke:none;stroke-width:1;stroke-miterlimit:4;stroke-opacity:1;stroke-dasharray:none;marker:none;visibility:visible;display:inline;overflow:visible;enable-background:accumulate" />
    <rect
       style="color:#000000;fill:none;stroke:none;stroke-width:1;stroke-miterlimit:4;stroke-opacity:1;stroke-dasharray:none;marker:none;visibility:visible;display:inline;overflow:visible;enable-background:accumulate"
       id="rect3899"
       width="478.5629"
       height="242.85281"
       x="253.56691"
       y="47.915813" />
    <rect
       style="color:#000000;fill:none;stroke:#ffffff;stroke-width:1;stroke-miterlimit:4;stroke-opacity:1;stroke-dasharray:none;marker:none;visibility:visible;display:inline;overflow:visible;enable-background:accumulate"
       id="rect4201"
       width="160.71143"
       height="95.534012"
       x="520.52643"
       y="347.01761" />
    <rect
       style="color:#000000;fill:none;stroke:none;stroke-width:1;stroke-miterlimit:4;stroke-opacity:1;stroke-dasharray:none;marker:none;visibility:visible;display:inline;overflow:visible;enable-background:accumulate"
       id="rect4205"
       width="409.81412"
       height="150.89017"
       x="292.85193"
       y="294.34" />
    <rect
       y="325.58942"
       x="308.03021"
       height="107.14095"
       width="151.783"
       id="rect4359"
       style="color:#000000;fill:none;stroke:none;stroke-width:1;stroke-miterlimit:4;stroke-opacity:1;stroke-dasharray:none;marker:none;visibility:visible;display:inline;overflow:visible;enable-background:accumulate" />
    <rect
       style="color:#000000;fill:none;stroke:none;stroke-width:1;stroke-miterlimit:4;stroke-opacity:1;stroke-dasharray:none;marker:none;visibility:visible;display:inline;overflow:visible;enable-background:accumulate"
       id="rect4515"
       width="175.88972"
       height="107.14095"
       x="524.09778"
       y="330.05365" />
    <rect
       y="453.26572"
       x="264.28101"
       height="104.46244"
       width="215.17476"
       id="rect4673"
       style="color:#000000;fill:none;stroke:none;stroke-width:1;stroke-miterlimit:4;stroke-opacity:1;stroke-dasharray:none;marker:none;visibility:visible;display:inline;overflow:visible;enable-background:accumulate" />
    <rect
       style="color:#000000;fill:none;stroke:none;stroke-width:1;stroke-miterlimit:4;stroke-opacity:1;stroke-dasharray:none;marker:none;visibility:visible;display:inline;overflow:visible;enable-background:accumulate"
       id="rect4833"
       width="229.46019"
       height="111.60516"
       x="508.91949"
       y="443.44446" />
  </g>
  <script
     id="sozi-script"
     ns1:version="11.10-08184441">var sozi=sozi||{};(function(){var a=sozi.events=sozi.events||{},b={};a.listen=function(d,e){var c=b[d];if(!c){c=b[d]=[]}c.push(e)};a.fire=function(g){var d=b[g],c,f,e=Array.prototype.slice.call(arguments,1);if(d){c=d.length;for(f=0;f&lt;c;f+=1){d[f].apply(null,e)}}}}());var sozi=sozi||{};(function(){var w=sozi.framelist=sozi.framelist||{},k=this,r=k.document,q,m,c,j=0,d=5,i,u,b,y,z,v,f=300,g=&quot;decelerate&quot;,a=&quot;http://www.w3.org/2000/svg&quot;;function h(A){return function(B){sozi.player.previewFrame(A);B.stopPropagation()}}function l(A){A.stopPropagation()}function p(B){var A=B.relatedTarget;while(A!==m&amp;&amp;A!==q){A=A.parentNode}if(A===q){w.hide();sozi.player.restart();B.stopPropagation()}}function t(B){var A=c.getCTM().f;if(A&lt;=-k.innerHeight/2){A+=k.innerHeight/2}else{if(A&lt;0){A=0}}c.setAttribute(&quot;transform&quot;,&quot;translate(0,&quot;+A+&quot;)&quot;);B.stopPropagation()}function e(B){var A=c.getCTM().f;if(A+j&gt;=k.innerHeight*3/2){A-=k.innerHeight/2}else{if(A+j&gt;k.innerHeight+2*d){A=k.innerHeight-j-4*d}}c.setAttribute(&quot;transform&quot;,&quot;translate(0,&quot;+A+&quot;)&quot;);B.stopPropagation()}function s(A){var C=sozi.animation.profiles[g](A),B=1-C;z=y*C+b*B;m.setAttribute(&quot;transform&quot;,&quot;translate(&quot;+z+&quot;,0)&quot;)}function x(){}function o(){var G=r.createElementNS(a,&quot;rect&quot;),A=r.createElementNS(a,&quot;path&quot;),E=r.createElementNS(a,&quot;path&quot;),H=0,F,C=sozi.document.frames.length,B=sozi.location.getFrameIndex(),D,I;q=r.documentElement;m=r.createElementNS(a,&quot;g&quot;);m.setAttribute(&quot;id&quot;,&quot;sozi-toc&quot;);q.appendChild(m);c=r.createElementNS(a,&quot;g&quot;);m.appendChild(c);G.setAttribute(&quot;id&quot;,&quot;sozi-toc-background&quot;);G.setAttribute(&quot;x&quot;,d);G.setAttribute(&quot;y&quot;,d);G.setAttribute(&quot;rx&quot;,d);G.setAttribute(&quot;ry&quot;,d);G.addEventListener(&quot;click&quot;,l,false);G.addEventListener(&quot;mousedown&quot;,l,false);G.addEventListener(&quot;mouseout&quot;,p,false);c.appendChild(G);for(D=0;D&lt;C;D+=1){I=r.createElementNS(a,&quot;text&quot;);I.appendChild(r.createTextNode(sozi.document.frames[D].title));c.appendChild(I);if(D===B){I.setAttribute(&quot;class&quot;,&quot;sozi-toc-current&quot;)}F=I.getBBox().width;j+=I.getBBox().height;if(F&gt;H){H=F}I.setAttribute(&quot;x&quot;,2*d);I.setAttribute(&quot;y&quot;,j+d);I.addEventListener(&quot;click&quot;,h(D),false);I.addEventListener(&quot;mousedown&quot;,l,false)}A.setAttribute(&quot;class&quot;,&quot;sozi-toc-arrow&quot;);A.setAttribute(&quot;d&quot;,&quot;M&quot;+(H+3*d)+&quot;,&quot;+(5*d)+&quot; l&quot;+(4*d)+&quot;,0 l-&quot;+(2*d)+&quot;,-&quot;+(3*d)+&quot; z&quot;);A.addEventListener(&quot;click&quot;,t,false);A.addEventListener(&quot;mousedown&quot;,l,false);m.appendChild(A);E.setAttribute(&quot;class&quot;,&quot;sozi-toc-arrow&quot;);E.setAttribute(&quot;d&quot;,&quot;M&quot;+(H+3*d)+&quot;,&quot;+(7*d)+&quot; l&quot;+(4*d)+&quot;,0 l-&quot;+(2*d)+&quot;,&quot;+(3*d)+&quot; z&quot;);E.addEventListener(&quot;click&quot;,e,false);E.addEventListener(&quot;mousedown&quot;,l,false);m.appendChild(E);G.setAttribute(&quot;width&quot;,H+7*d);G.setAttribute(&quot;height&quot;,j+2*d);i=-H-9*d;u=0;z=y=i;m.setAttribute(&quot;transform&quot;,&quot;translate(&quot;+i+&quot;,0)&quot;);v=new sozi.animation.Animator(s,x)}function n(A){var D=r.getElementsByClassName(&quot;sozi-toc-current&quot;),C=c.getElementsByTagName(&quot;text&quot;),B;for(B=0;B&lt;D.length;B+=1){D[B].removeAttribute(&quot;class&quot;)}C[A].setAttribute(&quot;class&quot;,&quot;sozi-toc-current&quot;)}w.show=function(){b=z;y=u;v.start(f)};w.hide=function(){b=z;y=i;v.start(f)};w.isVisible=function(){return y===u};sozi.events.listen(&quot;displayready&quot;,o);sozi.events.listen(&quot;cleanup&quot;,w.hide);sozi.events.listen(&quot;framechange&quot;,n)}());var sozi=sozi||{};(function(){var t=sozi.player=sozi.player||{},u=sozi.display=sozi.display||{},j=this,o=j.document,p=0,v=1,s=1.05,x=5,c=false,l=false,g=0,e=0;function a(A,z,B){t.stop();u.zoom(A&gt;0?s:1/s,z,B)}function w(y){t.stop();u.rotate(y&gt;0?x:-x)}function r(){if(sozi.framelist.isVisible()){sozi.framelist.hide();t.restart()}else{t.stop();sozi.framelist.show()}}function i(y){if(y.button===p){c=true;l=false;g=y.clientX;e=y.clientY}else{if(y.button===v){r()}}y.stopPropagation()}function m(y){if(c){t.stop();l=true;sozi.events.fire(&quot;cleanup&quot;);u.drag(y.clientX-g,y.clientY-e);g=y.clientX;e=y.clientY}y.stopPropagation()}function f(y){if(y.button===p){c=false}y.stopPropagation()}function q(y){t.moveToPrevious();y.stopPropagation();y.preventDefault()}function h(y){if(!l&amp;&amp;y.button!==v){t.moveToNext()}y.stopPropagation()}function k(y){var z=0;if(!y){y=j.event}if(y.wheelDelta){z=y.wheelDelta;if(j.opera){z=-z}}else{if(y.detail){z=-y.detail}}if(z!==0){if(y.shiftKey){w(z)}else{a(z,y.clientX,y.clientY)}}y.stopPropagation();y.preventDefault()}function n(y){switch(y.charCode){case 43:a(1,j.innerWidth/2,j.innerHeight/2);break;case 45:a(-1,j.innerWidth/2,j.innerHeight/2);break;case 61:t.moveToCurrent();break;case 70:case 102:t.showAll();break;case 84:case 116:r();break;case 82:w(-1);break;case 114:w(1);break}y.stopPropagation()}function d(y){switch(y.keyCode){case 36:t.moveToFirst();break;case 35:t.moveToLast();break;case 38:t.jumpToPrevious();break;case 33:case 37:t.moveToPrevious();break;case 40:t.jumpToNext();break;case 34:case 39:case 13:case 32:t.moveToNext();break}y.stopPropagation()}function b(){var y=o.documentElement;y.addEventListener(&quot;click&quot;,h,false);y.addEventListener(&quot;mousedown&quot;,i,false);y.addEventListener(&quot;mouseup&quot;,f,false);y.addEventListener(&quot;mousemove&quot;,m,false);y.addEventListener(&quot;keypress&quot;,n,false);y.addEventListener(&quot;keydown&quot;,d,false);y.addEventListener(&quot;contextmenu&quot;,q,false);y.addEventListener(&quot;DOMMouseScroll&quot;,k,false);j.onmousewheel=k}j.addEventListener(&quot;load&quot;,b,false)}());var sozi=sozi||{};(function(){var e=sozi.animation=sozi.animation||{},h=this,j=40,d=[],b,i=h.mozRequestAnimationFrame||h.webkitRequestAnimationFrame||h.msRequestAnimationFrame||h.oRequestAnimationFrame;function c(){if(i){i(f)}else{b=h.setInterval(function(){f(Date.now())},j)}}function f(l){var k;if(d.length&gt;0){if(i){i(f)}for(k=0;k&lt;d.length;k+=1){d[k].step(l)}}else{if(!i){h.clearInterval(b)}}}function a(k){d.push(k);if(d.length===1){c()}}function g(k){d.splice(d.indexOf(k),1)}e.Animator=function(k,l){this.onStep=k;this.onDone=l;this.durationMs=0;this.data={};this.initialTime=0;this.started=false};e.Animator.prototype.start=function(k,l){this.durationMs=k;this.data=l;this.initialTime=Date.now();this.onStep(0,this.data);if(!this.started){this.started=true;a(this)}};e.Animator.prototype.stop=function(){if(this.started){g(this);this.started=false}};e.Animator.prototype.step=function(l){var k=l-this.initialTime;if(k&gt;=this.durationMs){this.stop();this.onStep(1,this.data);this.onDone()}else{this.onStep(k/this.durationMs,this.data)}};e.profiles={linear:function(k){return k},accelerate:function(k){return Math.pow(k,3)},&quot;strong-accelerate&quot;:function(k){return Math.pow(k,5)},decelerate:function(k){return 1-Math.pow(1-k,3)},&quot;strong-decelerate&quot;:function(k){return 1-Math.pow(1-k,5)},&quot;accelerate-decelerate&quot;:function(k){var l=k&lt;=0.5?k:1-k,m=Math.pow(2*l,3)/2;return k&lt;=0.5?m:1-m},&quot;strong-accelerate-decelerate&quot;:function(k){var l=k&lt;=0.5?k:1-k,m=Math.pow(2*l,5)/2;return k&lt;=0.5?m:1-m},&quot;decelerate-accelerate&quot;:function(k){var l=k&lt;=0.5?k:1-k,m=(1-Math.pow(1-2*l,2))/2;return k&lt;=0.5?m:1-m},&quot;strong-decelerate-accelerate&quot;:function(k){var l=k&lt;=0.5?k:1-k,m=(1-Math.pow(1-2*l,3))/2;return k&lt;=0.5?m:1-m}}}());var sozi=sozi||{};(function(){var d=sozi.player=sozi.player||{},j=sozi.display=sozi.display||{},h=this,c,k,e=500,q=-10,l=&quot;linear&quot;,g=0,n=0,o=false,p=false;function f(t,w){var v=1-t,u=w.profile(t),s=1-u,r,x;for(r in w.initialState){if(w.initialState.hasOwnProperty(r)){if(typeof w.initialState[r]===&quot;number&quot;&amp;&amp;typeof w.finalState[r]===&quot;number&quot;){j.geometry[r]=w.finalState[r]*u+w.initialState[r]*s}}}if(w.zoomWidth&amp;&amp;w.zoomWidth.k!==0){x=t-w.zoomWidth.ts;j.geometry.width=w.zoomWidth.k*x*x+w.zoomWidth.ss}if(w.zoomHeight&amp;&amp;w.zoomHeight.k!==0){x=t-w.zoomHeight.ts;j.geometry.height=w.zoomHeight.k*x*x+w.zoomHeight.ss}j.clip=w.finalState.clip;j.update()}function i(){var r;if(sozi.document.frames[n].timeoutEnable){p=true;r=(n+1)%sozi.document.frames.length;k=h.setTimeout(function(){d.moveToFrame(r)},sozi.document.frames[n].timeoutMs)}}function m(){g=n;if(o){i()}}d.startFromIndex=function(r){o=true;p=false;g=r;n=r;j.showFrame(sozi.document.frames[r]);i()};d.restart=function(){d.startFromIndex(n)};d.stop=function(){c.stop();if(p){h.clearTimeout(k);p=false}o=false;g=n};function b(r,B,z){var C={ss:((r&lt;0)?Math.max(B,z):Math.min(B,z))*(100-r)/100,ts:0.5,k:0},x,w,t,s,A,y;if(r!==0){x=B-z;w=B-C.ss;t=z-C.ss;if(x!==0){s=Math.sqrt(w*t);A=(w-s)/x;y=(w+s)/x;C.ts=(A&gt;0&amp;&amp;A&lt;=1)?A:y}C.k=w/C.ts/C.ts}return C}d.jumpToFrame=function(r){d.stop();sozi.events.fire(&quot;cleanup&quot;);g=r;n=r;j.showFrame(sozi.document.frames[r]);sozi.events.fire(&quot;framechange&quot;,r)};d.previewFrame=function(s){var u=sozi.document.frames[s].geometry,r,t;if(q!==0){r=b(q,j.geometry.width,u.width);t=b(q,j.geometry.height,u.height)}n=s;c.start(e,{initialState:j.getCurrentGeometry(),finalState:u,profile:sozi.animation.profiles[l],zoomWidth:r,zoomHeight:t});sozi.events.fire(&quot;framechange&quot;,s)};d.moveToFrame=function(t){var s=e,w=q,u=sozi.animation.profiles[l],r,v;if(p){h.clearTimeout(k);p=false}if(t===(n+1)%sozi.document.frames.length){s=sozi.document.frames[t].transitionDurationMs;w=sozi.document.frames[t].transitionZoomPercent;u=sozi.document.frames[t].transitionProfile}sozi.events.fire(&quot;cleanup&quot;);if(w!==0){r=b(w,j.geometry.width,sozi.document.frames[t].geometry.width);v=b(w,j.geometry.height,sozi.document.frames[t].geometry.height)}o=true;n=t;c.start(s,{initialState:j.getCurrentGeometry(),finalState:sozi.document.frames[n].geometry,profile:u,zoomWidth:r,zoomHeight:v});sozi.events.fire(&quot;framechange&quot;,t)};d.moveToFirst=function(){d.moveToFrame(0)};d.jumpToPrevious=function(){var r=n;if(!c.started||g&lt;=n){r-=1}if(r&gt;=0){d.jumpToFrame(r)}};d.moveToPrevious=function(){var r=n,s;for(r-=1;r&gt;=0;r-=1){s=sozi.document.frames[r];if(!s.timeoutEnable||s.timeoutMs!==0){d.moveToFrame(r);break}}};d.jumpToNext=function(){var r=n;if(!c.started||g&gt;=n){r+=1}if(r&lt;sozi.document.frames.length){d.jumpToFrame(r)}};d.moveToNext=function(){if(n&lt;sozi.document.frames.length-1||sozi.document.frames[n].timeoutEnable){d.moveToFrame((n+1)%sozi.document.frames.length)}};d.moveToLast=function(){d.moveToFrame(sozi.document.frames.length-1)};d.moveToCurrent=function(){d.moveToFrame(n)};d.showAll=function(){d.stop();sozi.events.fire(&quot;cleanup&quot;);c.start(e,{initialState:j.getCurrentGeometry(),finalState:j.getDocumentGeometry(),profile:sozi.animation.profiles[l]})};function a(){d.startFromIndex(sozi.location.getFrameIndex())}c=new sozi.animation.Animator(f,m);sozi.events.listen(&quot;displayready&quot;,a)}());var sozi=sozi||{};(function(){var d=sozi.display=sozi.display||{},h=this,i=h.document,j,c,k,a,g=&quot;http://www.w3.org/2000/svg&quot;;d.geometry={cx:0,cy:0,width:1,height:1,rotate:0,clip:true};function f(){var o,l=i.createElementNS(g,&quot;g&quot;),m=i.createElementNS(g,&quot;clipPath&quot;);j=i.documentElement;k=j.getBBox();a=i.createElementNS(g,&quot;g&quot;);while(true){o=j.firstChild;if(!o){break}j.removeChild(o);a.appendChild(o)}c=i.createElementNS(g,&quot;rect&quot;);c.setAttribute(&quot;id&quot;,&quot;sozi-clip-rect&quot;);m.setAttribute(&quot;id&quot;,&quot;sozi-clip-path&quot;);m.appendChild(c);j.appendChild(m);l.setAttribute(&quot;clip-path&quot;,&quot;url(#sozi-clip-path)&quot;);l.appendChild(a);j.appendChild(l);j.setAttribute(&quot;width&quot;,h.innerWidth);j.setAttribute(&quot;height&quot;,h.innerHeight);sozi.events.fire(&quot;displayready&quot;)}function b(){j.setAttribute(&quot;width&quot;,h.innerWidth);j.setAttribute(&quot;height&quot;,h.innerHeight);d.update()}function e(){var l={};l.scale=Math.min(h.innerWidth/d.geometry.width,h.innerHeight/d.geometry.height);l.width=d.geometry.width*l.scale;l.height=d.geometry.height*l.scale;l.x=(h.innerWidth-l.width)/2;l.y=(h.innerHeight-l.height)/2;return l}d.getElementGeometry=function(l){var s,p,t,n,q,o,r=l.getCTM(),m=Math.sqrt(r.a*r.a+r.b*r.b);if(l.nodeName===&quot;rect&quot;){s=l.x.baseVal.value;p=l.y.baseVal.value;t=l.width.baseVal.value;n=l.height.baseVal.value}else{q=l.getBBox();s=q.x;p=q.y;t=q.width;n=q.height}o=i.documentElement.createSVGPoint();o.x=s+t/2;o.y=p+n/2;o=o.matrixTransform(r);return{cx:o.x,cy:o.y,width:t*m,height:n*m,rotate:Math.atan2(r.b,r.a)*180/Math.PI}};d.getDocumentGeometry=function(){return{cx:k.x+k.width/2,cy:k.y+k.height/2,width:k.width,height:k.height,rotate:0,clip:false}};d.getCurrentGeometry=function(){return{cx:d.geometry.cx,cy:d.geometry.cy,width:d.geometry.width,height:d.geometry.height,rotate:d.geometry.rotate,clip:d.geometry.clip}};d.update=function(){var l=e(),n=-d.geometry.cx+d.geometry.width/2+l.x/l.scale,m=-d.geometry.cy+d.geometry.height/2+l.y/l.scale;a.setAttribute(&quot;transform&quot;,&quot;scale(&quot;+l.scale+&quot;)translate(&quot;+n+&quot;,&quot;+m+&quot;)rotate(&quot;+(-d.geometry.rotate)+&quot;,&quot;+d.geometry.cx+&quot;,&quot;+d.geometry.cy+&quot;)&quot;);c.setAttribute(&quot;x&quot;,d.geometry.clip?l.x:0);c.setAttribute(&quot;y&quot;,d.geometry.clip?l.y:0);c.setAttribute(&quot;width&quot;,d.geometry.clip?l.width:h.innerWidth);c.setAttribute(&quot;height&quot;,d.geometry.clip?l.height:h.innerHeight)};d.showFrame=function(m){var l;for(l in m.geometry){if(m.geometry.hasOwnProperty(l)){d.geometry[l]=m.geometry[l]}}d.update()};d.drag=function(m,l){var n=e(),o=d.geometry.rotate*Math.PI/180;d.geometry.cx-=(m*Math.cos(o)-l*Math.sin(o))/n.scale;d.geometry.cy-=(m*Math.sin(o)+l*Math.cos(o))/n.scale;d.geometry.clip=false;d.update()};d.zoom=function(o,m,p){var n=(1-o)*(m-h.innerWidth/2),l=(1-o)*(p-h.innerHeight/2);d.geometry.width/=o;d.geometry.height/=o;d.drag(n,l)};d.rotate=function(l){d.geometry.rotate+=l;d.geometry.rotate%=360;d.update()};sozi.events.listen(&quot;documentready&quot;,f);h.addEventListener(&quot;resize&quot;,b,false)}());var sozi=sozi||{};(function(){var c=sozi.document=sozi.document||{},g=this,a=g.document,f=&quot;http://sozi.baierouge.fr&quot;,d={title:&quot;Untitled&quot;,sequence:&quot;0&quot;,hide:&quot;true&quot;,clip:&quot;true&quot;,&quot;timeout-enable&quot;:&quot;false&quot;,&quot;timeout-ms&quot;:&quot;5000&quot;,&quot;transition-duration-ms&quot;:&quot;1000&quot;,&quot;transition-zoom-percent&quot;:&quot;0&quot;,&quot;transition-profile&quot;:&quot;linear&quot;};c.frames=[];function h(j,i){var k=j.getAttributeNS(f,i);return k===&quot;&quot;?d[i]:k}function b(){var j=a.getElementsByTagNameNS(f,&quot;frame&quot;),k=j.length,m,l,n;for(l=0;l&lt;k;l+=1){m=a.getElementById(j[l].getAttributeNS(f,&quot;refid&quot;));if(m){n={geometry:sozi.display.getElementGeometry(m),title:h(j[l],&quot;title&quot;),sequence:parseInt(h(j[l],&quot;sequence&quot;),10),hide:h(j[l],&quot;hide&quot;)===&quot;true&quot;,timeoutEnable:h(j[l],&quot;timeout-enable&quot;)===&quot;true&quot;,timeoutMs:parseInt(h(j[l],&quot;timeout-ms&quot;),10),transitionDurationMs:parseInt(h(j[l],&quot;transition-duration-ms&quot;),10),transitionZoomPercent:parseInt(h(j[l],&quot;transition-zoom-percent&quot;),10),transitionProfile:sozi.animation.profiles[h(j[l],&quot;transition-profile&quot;)||&quot;linear&quot;]};if(n.hide){m.setAttribute(&quot;visibility&quot;,&quot;hidden&quot;)}n.geometry.clip=h(j[l],&quot;clip&quot;)===&quot;true&quot;;c.frames.push(n)}}c.frames.sort(function(o,i){return o.sequence-i.sequence})}function e(){a.documentElement.removeAttribute(&quot;viewBox&quot;);b();sozi.events.fire(&quot;documentready&quot;)}g.addEventListener(&quot;load&quot;,e,false)}());var sozi=sozi||{};(function(){var a=sozi.location=sozi.location||{},e=this,c=false;a.getFrameIndex=function(){var g=e.location.hash?parseInt(e.location.hash.slice(1),10)-1:0;if(isNaN(g)||g&lt;0){return 0}else{if(g&gt;=sozi.document.frames.length){return sozi.document.frames.length-1}else{return g}}};function f(){var g=a.getFrameIndex();if(!c){sozi.player.moveToFrame(g)}c=false}function d(g){c=true;e.location.hash=&quot;#&quot;+(g+1)}function b(){sozi.events.listen(&quot;framechange&quot;,d)}e.addEventListener(&quot;hashchange&quot;,f,false);e.addEventListener(&quot;load&quot;,b,false)}());</script>
  <style
     id="sozi-style"
     ns1:version="11.10-08184441">#sozi-toc text{fill:#eff;font-family:Verdana,sans-serif;font-size:12pt}#sozi-toc text:hover{fill:#0cf;cursor:pointer}#sozi-toc text.sozi-toc-current{fill:#fa4}#sozi-toc-background{stroke:#222;stroke-opacity:.1;stroke-width:10;fill:#222;fill-opacity:.9}.sozi-toc-arrow{fill:#eff;fill-opacity:.75;stroke:none}.sozi-toc-arrow:hover{fill:#0cf}</style>
  <ns1:frame
     ns1:refid="rect3319"
     ns1:sequence="1"
     ns1:transition-duration-ms="2000"
     ns1:hide="true"
     ns1:clip="true"
     ns1:title="LogicalBricks"
     ns1:transition-zoom-percent="0"
     ns1:timeout-ms="5000"
     ns1:timeout-enable="false"
     ns1:transition-profile="linear" />
  <ns1:frame
     ns1:transition-profile="linear"
     ns1:timeout-enable="false"
     ns1:timeout-ms="5000"
     ns1:transition-zoom-percent="0"
     ns1:title="Community"
     ns1:clip="true"
     ns1:hide="true"
     ns1:transition-duration-ms="2000"
     ns1:sequence="2"
     ns1:refid="rect3461" />
  <ns1:frame
     ns1:refid="rect3605"
     ns1:sequence="3"
     ns1:transition-duration-ms="2000"
     ns1:hide="true"
     ns1:clip="true"
     ns1:title="Desarrollo Ágil"
     ns1:transition-zoom-percent="0"
     ns1:timeout-ms="5000"
     ns1:timeout-enable="false"
     ns1:transition-profile="linear" />
  <ns1:frame
     ns1:transition-profile="linear"
     ns1:timeout-enable="false"
     ns1:timeout-ms="5000"
     ns1:transition-zoom-percent="0"
     ns1:title="Scrum"
     ns1:clip="true"
     ns1:hide="true"
     ns1:transition-duration-ms="2000"
     ns1:sequence="4"
     ns1:refid="rect3751" />
  <ns1:frame
     ns1:refid="rect3899"
     ns1:sequence="5"
     ns1:transition-duration-ms="2000"
     ns1:hide="true"
     ns1:clip="true"
     ns1:title="Ruby on Rails"
     ns1:transition-zoom-percent="0"
     ns1:timeout-ms="5000"
     ns1:timeout-enable="false"
     ns1:transition-profile="linear" />
  <ns1:frame
     ns1:refid="rect4205"
     ns1:sequence="6"
     ns1:transition-duration-ms="2000"
     ns1:hide="true"
     ns1:clip="true"
     ns1:title="BDD-TDD"
     ns1:transition-zoom-percent="0"
     ns1:timeout-ms="5000"
     ns1:timeout-enable="false"
     ns1:transition-profile="linear" />
  <ns1:frame
     ns1:transition-profile="linear"
     ns1:timeout-enable="false"
     ns1:timeout-ms="5000"
     ns1:transition-zoom-percent="0"
     ns1:title="BDD"
     ns1:clip="true"
     ns1:hide="true"
     ns1:transition-duration-ms="2000"
     ns1:sequence="7"
     ns1:refid="rect4359" />
  <ns1:frame
     ns1:refid="rect4515"
     ns1:sequence="9"
     ns1:transition-duration-ms="2000"
     ns1:hide="true"
     ns1:clip="true"
     ns1:title="TDD"
     ns1:transition-zoom-percent="0"
     ns1:timeout-ms="5000"
     ns1:timeout-enable="false"
     ns1:transition-profile="linear" />
  <ns1:frame
     ns1:transition-profile="linear"
     ns1:timeout-enable="false"
     ns1:timeout-ms="5000"
     ns1:transition-zoom-percent="0"
     ns1:title="Cucumber"
     ns1:clip="true"
     ns1:hide="true"
     ns1:transition-duration-ms="1000"
     ns1:sequence="8"
     ns1:refid="rect4673" />
  <ns1:frame
     ns1:refid="rect4833"
     ns1:sequence="10"
     ns1:transition-duration-ms="2000"
     ns1:hide="true"
     ns1:clip="true"
     ns1:title="RSpec"
     ns1:transition-zoom-percent="0"
     ns1:timeout-ms="5000"
     ns1:timeout-enable="false"
     ns1:transition-profile="linear" />
</svg>
